<mxfile host="65bd71144e" modified="2021-11-24T23:30:53.769Z" agent="5.0 (Windows NT 10.0; Win64; x64) AppleWebKit/537.36 (KHTML, like Gecko) Code/1.62.2 Chrome/91.0.4472.164 Electron/13.5.2 Safari/537.36" etag="ML55NOMrkQC_1cYUOHes" version="13.10.0" type="embed">
    <diagram id="JRJpujQTicSzLXms3XTn" name="Page-1">
        <mxGraphModel dx="1234" dy="598" grid="1" gridSize="10" guides="1" tooltips="1" connect="1" arrows="1" fold="1" page="1" pageScale="1" pageWidth="850" pageHeight="1100" math="0" shadow="0">
            <root>
                <mxCell id="0"/>
                <mxCell id="1" parent="0"/>
                <mxCell id="74" value="" style="rounded=0;whiteSpace=wrap;html=1;fillColor=none;strokeColor=#FFFFFF;dashed=1;" parent="1" vertex="1">
                    <mxGeometry x="30" y="360" width="180" height="400" as="geometry"/>
                </mxCell>
                <mxCell id="7" value="SDK AGENT&lt;br&gt;(Totem)" style="rounded=1;whiteSpace=wrap;html=1;sketch=0;align=center;" parent="1" vertex="1">
                    <mxGeometry x="610" y="10" width="120" height="60" as="geometry"/>
                </mxCell>
                <mxCell id="9" value="SDK CLIENT&lt;br&gt;(Browser)" style="rounded=1;whiteSpace=wrap;html=1;sketch=0;align=center;" parent="1" vertex="1">
                    <mxGeometry x="290" y="70" width="120" height="60" as="geometry"/>
                </mxCell>
                <mxCell id="12" value="&lt;span&gt;SERVICE-POS&lt;/span&gt;&lt;br&gt;&lt;span&gt;(Totem)&lt;/span&gt;" style="rounded=1;whiteSpace=wrap;html=1;sketch=0;align=center;verticalAlign=top;" parent="1" vertex="1">
                    <mxGeometry x="595" y="170" width="150" height="110" as="geometry"/>
                </mxCell>
                <mxCell id="13" value="" style="endArrow=classic;html=1;entryX=0;entryY=0.5;entryDx=0;entryDy=0;exitX=0.5;exitY=0;exitDx=0;exitDy=0;" parent="1" source="9" target="7" edge="1">
                    <mxGeometry width="50" height="50" relative="1" as="geometry">
                        <mxPoint x="630" y="110" as="sourcePoint"/>
                        <mxPoint x="680" y="60" as="targetPoint"/>
                        <Array as="points">
                            <mxPoint x="350" y="40"/>
                        </Array>
                    </mxGeometry>
                </mxCell>
                <mxCell id="14" value="" style="endArrow=classic;html=1;entryX=0.01;entryY=0.339;entryDx=0;entryDy=0;exitX=1;exitY=1;exitDx=0;exitDy=0;entryPerimeter=0;" parent="1" source="15" target="12" edge="1">
                    <mxGeometry width="50" height="50" relative="1" as="geometry">
                        <mxPoint x="700" y="150" as="sourcePoint"/>
                        <mxPoint x="750" y="100" as="targetPoint"/>
                        <Array as="points">
                            <mxPoint x="188" y="207"/>
                        </Array>
                    </mxGeometry>
                </mxCell>
                <mxCell id="15" value="APP" style="ellipse;whiteSpace=wrap;html=1;aspect=fixed;rounded=0;sketch=0;align=center;" parent="1" vertex="1">
                    <mxGeometry x="120" y="60" width="80" height="80" as="geometry"/>
                </mxCell>
                <mxCell id="16" value="" style="endArrow=classic;html=1;entryX=0;entryY=0.5;entryDx=0;entryDy=0;exitX=1;exitY=0.5;exitDx=0;exitDy=0;" parent="1" source="15" target="9" edge="1">
                    <mxGeometry width="50" height="50" relative="1" as="geometry">
                        <mxPoint x="510" y="140" as="sourcePoint"/>
                        <mxPoint x="560" y="90" as="targetPoint"/>
                    </mxGeometry>
                </mxCell>
                <mxCell id="19" value="&lt;span&gt;SERVICE-POS&lt;/span&gt;&lt;br&gt;&lt;span&gt;&lt;font color=&quot;#ff0000&quot;&gt;(Totem)&lt;/font&gt;&lt;/span&gt;" style="rounded=1;whiteSpace=wrap;html=1;sketch=0;align=center;labelPosition=center;verticalLabelPosition=middle;verticalAlign=top;horizontal=1;" parent="1" vertex="1">
                    <mxGeometry x="395" y="600" width="160" height="200" as="geometry"/>
                </mxCell>
                <mxCell id="22" value="APP" style="ellipse;whiteSpace=wrap;html=1;aspect=fixed;rounded=0;sketch=0;align=center;" parent="1" vertex="1">
                    <mxGeometry x="80" y="655" width="80" height="80" as="geometry"/>
                </mxCell>
                <mxCell id="27" value="PRINTER" style="rounded=0;whiteSpace=wrap;html=1;sketch=0;align=center;" parent="1" vertex="1">
                    <mxGeometry x="427.5" y="730" width="95" height="30" as="geometry"/>
                </mxCell>
                <mxCell id="28" value="COMMAND PRINT" style="rounded=0;whiteSpace=wrap;html=1;sketch=0;align=center;" parent="1" vertex="1">
                    <mxGeometry x="610" y="230" width="120" height="30" as="geometry"/>
                </mxCell>
                <mxCell id="31" value="" style="endArrow=classic;html=1;entryX=0.5;entryY=1;entryDx=0;entryDy=0;" parent="1" source="12" target="7" edge="1">
                    <mxGeometry width="50" height="50" relative="1" as="geometry">
                        <mxPoint x="730" y="300" as="sourcePoint"/>
                        <mxPoint x="780" y="250" as="targetPoint"/>
                    </mxGeometry>
                </mxCell>
                <mxCell id="32" value="" style="endArrow=classic;html=1;entryX=0.331;entryY=0.975;entryDx=0;entryDy=0;entryPerimeter=0;exitX=-0.018;exitY=0.694;exitDx=0;exitDy=0;exitPerimeter=0;" parent="1" source="12" target="15" edge="1">
                    <mxGeometry width="50" height="50" relative="1" as="geometry">
                        <mxPoint x="595" y="250" as="sourcePoint"/>
                        <mxPoint x="720" y="250" as="targetPoint"/>
                        <Array as="points">
                            <mxPoint x="146" y="246"/>
                        </Array>
                    </mxGeometry>
                </mxCell>
                <mxCell id="33" value="WebSocket" style="text;html=1;strokeColor=none;fillColor=none;align=center;verticalAlign=middle;whiteSpace=wrap;rounded=0;sketch=0;" parent="1" vertex="1">
                    <mxGeometry x="500" y="212.5" width="70" height="25" as="geometry"/>
                </mxCell>
                <mxCell id="34" value="Install" style="text;html=1;strokeColor=none;fillColor=none;align=center;verticalAlign=middle;whiteSpace=wrap;rounded=0;" parent="1" vertex="1">
                    <mxGeometry x="680" y="110" width="40" height="20" as="geometry"/>
                </mxCell>
                <mxCell id="36" value="WebSocket" style="text;html=1;strokeColor=none;fillColor=none;align=center;verticalAlign=middle;whiteSpace=wrap;rounded=0;sketch=0;" parent="1" vertex="1">
                    <mxGeometry x="395" y="538" width="70" height="25" as="geometry"/>
                </mxCell>
                <mxCell id="41" value="HTTP" style="text;html=1;strokeColor=none;fillColor=none;align=center;verticalAlign=middle;whiteSpace=wrap;rounded=0;sketch=0;" parent="1" vertex="1">
                    <mxGeometry x="315" y="670" width="70" height="25" as="geometry"/>
                </mxCell>
                <mxCell id="43" value="MONITOR" style="ellipse;whiteSpace=wrap;html=1;aspect=fixed;rounded=0;sketch=0;align=center;dashed=1;" parent="1" vertex="1">
                    <mxGeometry x="80" y="500" width="80" height="80" as="geometry"/>
                </mxCell>
                <mxCell id="25" value="POS" style="rounded=0;whiteSpace=wrap;html=1;sketch=0;align=center;" parent="1" vertex="1">
                    <mxGeometry x="427.5" y="680" width="95" height="30" as="geometry"/>
                </mxCell>
                <mxCell id="47" value="" style="endArrow=classic;html=1;exitX=1;exitY=0.5;exitDx=0;exitDy=0;entryX=-0.002;entryY=0.475;entryDx=0;entryDy=0;entryPerimeter=0;" parent="1" source="22" target="19" edge="1">
                    <mxGeometry width="50" height="50" relative="1" as="geometry">
                        <mxPoint x="160" y="695" as="sourcePoint"/>
                        <mxPoint x="396" y="694" as="targetPoint"/>
                        <Array as="points"/>
                    </mxGeometry>
                </mxCell>
                <mxCell id="49" value="DB&lt;br&gt;&lt;font color=&quot;#ff0000&quot;&gt;(aws)&lt;/font&gt;" style="shape=cylinder3;whiteSpace=wrap;html=1;boundedLbl=1;backgroundOutline=1;size=15;dashed=1;strokeColor=#007FFF;" parent="1" vertex="1">
                    <mxGeometry x="730" y="610" width="60" height="80" as="geometry"/>
                </mxCell>
                <mxCell id="53" value="DB LOCAL&lt;br&gt;&lt;font color=&quot;#ff0000&quot;&gt;(.json)&lt;/font&gt;" style="shape=note;whiteSpace=wrap;html=1;backgroundOutline=1;darkOpacity=0.05;strokeColor=#66CC00;verticalAlign=middle;labelPosition=center;verticalLabelPosition=middle;align=center;spacingBottom=0;spacingTop=20;" parent="1" vertex="1">
                    <mxGeometry x="660" y="720" width="80" height="100" as="geometry"/>
                </mxCell>
                <mxCell id="60" value="BACKEND&lt;br&gt;&lt;font color=&quot;#ff0000&quot;&gt;(aws)&lt;/font&gt;" style="rounded=1;whiteSpace=wrap;html=1;strokeColor=#007FFF;" parent="1" vertex="1">
                    <mxGeometry x="700" y="480" width="120" height="60" as="geometry"/>
                </mxCell>
                <mxCell id="62" value="" style="shape=link;html=1;exitX=1;exitY=1;exitDx=0;exitDy=0;entryX=0.5;entryY=0;entryDx=0;entryDy=0;dashed=1;strokeColor=#FFFFFF;" parent="1" source="43" target="19" edge="1">
                    <mxGeometry width="100" relative="1" as="geometry">
                        <mxPoint x="430" y="630" as="sourcePoint"/>
                        <mxPoint x="530" y="630" as="targetPoint"/>
                        <Array as="points">
                            <mxPoint x="475" y="568"/>
                        </Array>
                    </mxGeometry>
                </mxCell>
                <mxCell id="63" value="" style="shape=link;html=1;exitX=1;exitY=0;exitDx=0;exitDy=0;entryX=0;entryY=0.5;entryDx=0;entryDy=0;strokeColor=#007FFF;" parent="1" source="43" target="60" edge="1">
                    <mxGeometry width="100" relative="1" as="geometry">
                        <mxPoint x="190" y="510" as="sourcePoint"/>
                        <mxPoint x="680" y="510" as="targetPoint"/>
                    </mxGeometry>
                </mxCell>
                <mxCell id="64" value="WebSocket" style="text;html=1;strokeColor=none;fillColor=none;align=center;verticalAlign=middle;whiteSpace=wrap;rounded=0;sketch=0;" parent="1" vertex="1">
                    <mxGeometry x="600" y="480" width="70" height="25" as="geometry"/>
                </mxCell>
                <mxCell id="65" value="" style="endArrow=none;html=1;entryX=0;entryY=0.4;entryDx=0;entryDy=0;entryPerimeter=0;strokeColor=#66CC00;" parent="1" target="53" edge="1">
                    <mxGeometry width="50" height="50" relative="1" as="geometry">
                        <mxPoint x="555" y="760" as="sourcePoint"/>
                        <mxPoint x="605" y="710" as="targetPoint"/>
                    </mxGeometry>
                </mxCell>
                <mxCell id="68" value="" style="endArrow=none;html=1;entryX=0.5;entryY=0;entryDx=0;entryDy=0;entryPerimeter=0;exitX=0.5;exitY=1;exitDx=0;exitDy=0;strokeColor=#007FFF;" parent="1" source="60" target="49" edge="1">
                    <mxGeometry width="50" height="50" relative="1" as="geometry">
                        <mxPoint x="565" y="660" as="sourcePoint"/>
                        <mxPoint x="740" y="660" as="targetPoint"/>
                    </mxGeometry>
                </mxCell>
                <mxCell id="72" value="" style="endArrow=classic;html=1;entryX=0;entryY=0.5;entryDx=0;entryDy=0;entryPerimeter=0;exitX=1;exitY=0.25;exitDx=0;exitDy=0;strokeColor=#007FFF;" parent="1" source="19" target="49" edge="1">
                    <mxGeometry width="50" height="50" relative="1" as="geometry">
                        <mxPoint x="560" y="650" as="sourcePoint"/>
                        <mxPoint x="430" y="600" as="targetPoint"/>
                    </mxGeometry>
                </mxCell>
                <mxCell id="73" value="SQL" style="text;html=1;strokeColor=none;fillColor=none;align=center;verticalAlign=middle;whiteSpace=wrap;rounded=0;sketch=0;" parent="1" vertex="1">
                    <mxGeometry x="610" y="620" width="70" height="25" as="geometry"/>
                </mxCell>
                <mxCell id="75" value="Clients" style="text;html=1;strokeColor=none;fillColor=none;align=center;verticalAlign=middle;whiteSpace=wrap;rounded=0;dashed=1;" parent="1" vertex="1">
                    <mxGeometry x="100" y="330" width="40" height="20" as="geometry"/>
                </mxCell>
                <mxCell id="76" value="TERMINAL" style="ellipse;whiteSpace=wrap;html=1;aspect=fixed;dashed=1;strokeColor=#66CC00;" parent="1" vertex="1">
                    <mxGeometry x="80" y="380" width="80" height="80" as="geometry"/>
                </mxCell>
                <mxCell id="77" value="" style="shape=link;html=1;exitX=1;exitY=0.5;exitDx=0;exitDy=0;dashed=1;strokeColor=#66CC00;entryX=0.75;entryY=0;entryDx=0;entryDy=0;" parent="1" source="76" target="19" edge="1">
                    <mxGeometry width="100" relative="1" as="geometry">
                        <mxPoint x="158.2842712474619" y="578.2842712474619" as="sourcePoint"/>
                        <mxPoint x="470" y="560" as="targetPoint"/>
                        <Array as="points">
                            <mxPoint x="360" y="420"/>
                            <mxPoint x="515" y="420"/>
                        </Array>
                    </mxGeometry>
                </mxCell>
            </root>
        </mxGraphModel>
    </diagram>
</mxfile>
